Coordinates
version=1
nRows=17
nColumns=40
inDegrees=yes

Units are S.I. units (second, meters, Newtons, ...)
Angles are in degrees.

endheader
time	pelvis_tilt	pelvis_list	pelvis_rotation	pelvis_tx	pelvis_ty	pelvis_tz	hip_flexion_r	hip_adduction_r	hip_rotation_r	knee_angle_r	knee_angle_r_beta	ankle_angle_r	subtalar_angle_r	mtp_angle_r	hip_flexion_l	hip_adduction_l	hip_rotation_l	knee_angle_l	knee_angle_l_beta	ankle_angle_l	subtalar_angle_l	mtp_angle_l	lumbar_extension	lumbar_bending	lumbar_rotation	arm_flex_r	arm_add_r	arm_rot_r	elbow_flex_r	pro_sup_r	wrist_flex_r	wrist_dev_r	arm_flex_l	arm_add_l	arm_rot_l	elbow_flex_l	pro_sup_l	wrist_flex_l	wrist_dev_l
     41.89250000	     -3.63179200	     -4.98506294	      1.70815763	      1.07915283	      0.91599132	      0.44928076	     24.39488384	      0.69722734	    -13.88679022	     23.83085463	     23.83085463	      4.46478412	     -8.94974139	     -2.47213762	      1.04665656	    -11.50175382	     -8.40601063	     40.59736431	     40.59736431	      6.83422200	    -11.82727731	    -19.74776139	     -8.02882734	      7.30662366	      1.64337496	     -9.54523056	    -11.20685870	    -14.45177938	     22.73407651	     46.64702374	      0.00000000	      0.00000000	     17.33299586	    -15.31672864	     -3.32056871	     83.04442378	     47.86931209	      0.00000000	      0.00000000
     41.90371429	     -3.53935615	     -5.22633575	      2.03767679	      1.07967223	      0.91713736	      0.45137274	     23.49965556	      1.08449118	    -14.12642891	     23.60281607	     23.60281607	      5.03712088	     -8.94465247	     -2.61211874	      3.16292929	    -12.29102533	     -7.16396424	     44.86217578	     44.86217578	      4.28407279	    -13.32195733	    -19.06648778	     -8.11599572	      7.44760707	      1.58425615	     -7.92106933	    -11.47672384	    -14.33227336	     23.67027856	     46.61243884	      0.00000000	      0.00000000	     15.75324096	    -14.84649551	     -3.06261561	     81.17772851	     47.81134318	      0.00000000	      0.00000000
     41.91492857	     -3.47149105	     -5.29668228	      2.37548074	      1.07984396	      0.91822999	      0.45322698	     22.68914058	      1.25569496	    -14.44815678	     23.46146246	     23.46146246	      5.60883558	     -8.91898786	     -2.82721368	      5.49228961	    -12.62865619	     -5.60578920	     49.19021419	     49.19021419	      2.65882195	    -14.57762528	    -15.13999955	     -8.12712090	      7.44447541	      1.83129546	     -6.84760413	    -11.92270111	    -12.91854768	     26.06386359	     46.40655291	      0.00000000	      0.00000000	     15.15601541	    -13.67564975	     -3.32097544	     76.74193618	     47.75644088	      0.00000000	      0.00000000
     41.92614286	     -3.40995901	     -5.38518086	      2.74117524	      1.07975921	      0.91920773	      0.45496131	     21.85499998	      1.43524919	    -14.82908910	     23.23530473	     23.23530473	      6.10456418	     -8.72579177	     -3.07737022	      7.91317866	    -12.90016399	     -4.06299612	     53.32468426	     53.32468426	      1.31971236	    -15.46108397	    -10.99025656	     -8.16246425	      7.42586687	      1.90536749	     -5.33531875	    -12.34183070	    -12.13186384	     27.69135754	     46.29299123	      0.00000000	      0.00000000	     14.26400071	    -12.73589248	     -3.57254383	     73.13956815	     47.70662440	      0.00000000	      0.00000000
     41.93735714	     -3.34793641	     -5.50426538	      3.10664321	      1.07942471	      0.92010141	      0.45659403	     21.02581736	      1.65808105	    -15.18377527	     22.97577506	     22.97577506	      6.53952571	     -8.56664565	     -3.25561414	     10.42011101	    -13.13188990	     -2.59318432	     57.27630249	     57.27630249	      0.85485331	    -15.69383514	     -5.58264592	     -8.25900807	      7.44145449	      2.08089193	     -3.90465861	    -12.83572252	    -11.24289002	     29.70132919	     46.15901414	      0.00000000	      0.00000000	     13.49024821	    -11.85690221	     -3.57415061	     69.43819607	     47.63228304	      0.00000000	      0.00000000
     41.94857143	     -3.23973842	     -5.72327925	      3.45883021	      1.07891098	      0.92092956	      0.45826177	     20.17074713	      2.01449138	    -15.52647564	     22.70550522	     22.70550522	      6.92830618	     -8.49243132	     -3.33172291	     12.67998247	    -13.47475137	     -1.31886392	     60.44306876	     60.44306876	     -0.89324617	    -16.66424916	     -4.54520251	     -8.47332457	      7.51179740	      2.05663316	     -1.83552039	    -13.23283217	    -11.23672453	     30.83145927	     46.12913697	      0.00000000	      0.00000000	     11.99860170	    -11.38449013	     -3.23502193	     67.70328937	     47.56808543	      0.00000000	      0.00000000
     41.95978571	     -3.23849950	     -5.69903777	      3.80950098	      1.07808801	      0.92170108	      0.45963395	     19.44022371	      2.06131430	    -15.89220007	     22.46969487	     22.46969487	      7.40151060	     -8.14606494	     -3.39232652	     15.27089477	    -13.31349805	      0.04088192	     63.72181029	     63.72181029	      0.35569585	    -16.38062421	      2.86414822	     -8.48255772	      7.37184185	      2.27116898	     -0.65207343	    -13.82874391	    -10.01553045	     33.89087492	     45.93908295	      0.00000000	      0.00000000	     11.84874239	    -10.44782347	     -3.43822451	     62.14770656	     47.44871028	      0.00000000	      0.00000000
     41.97100000	     -3.18876707	     -5.79110163	      4.12730379	      1.07714428	      0.92247355	      0.46105579	     18.65803710	      2.26976403	    -16.22679849	     22.18137783	     22.18137783	      7.80624347	     -7.88544128	     -3.39987512	     17.53699891	    -13.34264381	      1.11711831	     66.10797389	     66.10797389	      0.06191166	    -16.87085414	      4.88754799	     -8.60730188	      7.31691058	      2.38906111	      1.26728917	    -14.29450086	     -9.66991874	     35.55561988	     45.87002451	      0.00000000	      0.00000000	     11.19169002	     -9.68361444	     -3.63539585	     58.14043071	     47.37429083	      0.00000000	      0.00000000
     41.98221429	     -3.18053758	     -5.92932649	      4.42080241	      1.07604398	      0.92316231	      0.46253160	     17.91604366	      2.56311382	    -16.47127109	     21.83791912	     21.83791912	      8.17809348	     -7.72362144	     -3.41562236	     19.74054761	    -13.42314212	      2.04895448	     67.93367330	     67.93367330	     -0.31439432	    -17.40887985	      5.28157416	     -8.79917901	      7.25875610	      2.25193185	      3.59959602	    -14.61465162	     -9.73439508	     36.95937658	     45.83554585	      0.00000000	      0.00000000	      9.70746717	     -9.38994590	     -3.39607964	     56.06173030	     47.30747488	      0.00000000	      0.00000000
     41.99342857	     -3.09190263	     -5.91563044	      4.66917235	      1.07483812	      0.92403327	      0.46372911	     17.12686292	      2.65653838	    -16.76240767	     21.59648031	     21.59648031	      8.62551726	     -7.35692361	     -3.30927535	     21.78932934	    -13.28595950	      2.77329063	     69.37921545	     69.37921545	      0.36798074	    -17.61161798	      7.35140964	     -8.93436586	      7.12296754	      2.53446182	      5.42607118	    -15.14293790	     -9.28153715	     39.13486132	     45.74034130	      0.00000000	      0.00000000	      9.69488350	     -8.55363072	     -3.70601510	     50.55561723	     47.23785594	      0.00000000	      0.00000000
     42.00464286	     -3.10887514	     -5.97397306	      4.87008637	      1.07351077	      0.92478351	      0.46498318	     16.40389913	      2.87723266	    -16.93791328	     21.21193470	     21.21193470	      9.02226926	     -7.09673123	     -3.07572765	     23.85950239	    -13.25507810	      3.33649057	     70.29156953	     70.29156953	      1.02231564	    -17.77367801	      8.45538716	     -9.04573612	      7.02500949	      2.79921145	      7.24726953	    -15.66462504	     -9.05688782	     41.53864717	     45.65274016	      0.00000000	      0.00000000	      9.04693614	     -7.97865268	     -3.71770845	     46.71169216	     47.15111610	      0.00000000	      0.00000000
     42.01585714	     -3.10064368	     -6.04545710	      5.07812040	      1.07212942	      0.92556340	      0.46614017	     15.62111959	      3.12900109	    -17.08492744	     20.74083070	     20.74083070	      9.33283103	     -6.90699429	     -3.00002803	     25.75848326	    -13.23889795	      3.78065441	     70.61688087	     70.61688087	      1.48327764	    -17.98988915	      8.48009164	     -9.20289843	      6.91511790	      2.52229372	      9.76976865	    -15.81723731	     -9.16899047	     43.24924042	     45.61057130	      0.00000000	      0.00000000	      7.53306268	     -7.86779607	     -3.48952728	     44.64369031	     47.08255100	      0.00000000	      0.00000000
     42.02707143	     -3.10170065	     -6.06236414	      5.23210714	      1.07071938	      0.92634068	      0.46721068	     14.84200458	      3.33214384	    -17.18923466	     20.26024645	     20.26024645	      9.66135344	     -6.67280312	     -2.91317748	     27.51749609	    -13.16827941	      4.02851254	     70.43181390	     70.43181390	      2.10980780	    -18.17068884	      8.62783848	     -9.35099082	      6.76999145	      2.31950088	     12.28135327	    -15.96837149	     -9.18994900	     45.07209107	     45.55959510	      0.00000000	      0.00000000	      6.21576252	     -7.69913117	     -3.25338095	     42.18365161	     47.01272616	      0.00000000	      0.00000000
     42.03828571	     -3.14981413	     -5.97548317	      5.35605276	      1.06918143	      0.92715063	      0.46805090	     14.14342668	      3.37845232	    -17.31625432	     19.86834564	     19.86834564	     10.09761334	     -6.26144505	     -2.59276114	     29.18627132	    -12.94170898	      4.13648823	     69.77663051	     69.77663051	      3.11388210	    -18.21773585	      9.89850570	     -9.44676237	      6.54589840	      2.99701752	     13.76324729	    -16.81242213	     -8.55511446	     48.01659010	     45.43830336	      0.00000000	      0.00000000	      6.59761319	     -6.99397877	     -2.96762284	     36.41575008	     46.90203150	      0.00000000	      0.00000000
     42.04950000	     -3.18395818	     -5.96863340	      5.49327515	      1.06768435	      0.92792569	      0.46885847	     13.31870862	      3.58312929	    -17.33950152	     19.21334340	     19.21334340	     10.35911014	     -6.06896298	     -2.46134466	     30.67251759	    -12.83025733	      4.15540073	     68.57167069	     68.57167069	      3.68069082	    -18.35494409	     10.06232804	     -9.59795995	      6.39465061	      2.72464362	     16.30426428	    -16.81167134	     -8.74407135	     50.00248367	     45.39068606	      0.00000000	      0.00000000	      5.06621705	     -6.91830307	     -2.75922001	     34.76277197	     46.83628253	      0.00000000	      0.00000000
     42.06071429	     -3.28755472	     -5.90003657	      5.61389531	      1.06610449	      0.92855421	      0.46942059	     12.63046375	      3.65222019	    -17.44341977	     18.70797783	     18.70797783	     10.69936341	     -5.70537632	     -2.29480736	     32.09404406	    -12.61126768	      4.06852915	     66.97704473	     66.97704473	      4.48387639	    -18.40919659	     11.11616493	     -9.64749362	      6.20718522	      3.07146705	     17.96236850	    -17.41410191	     -8.47088218	     53.27436827	     45.28434714	      0.00000000	      0.00000000	      4.68415108	     -6.56622019	     -2.11686798	     30.92735915	     46.68725406	      0.00000000	      0.00000000
     42.07192857	     -3.34091224	     -5.86667962	      5.73645924	      1.06454295	      0.92921392	      0.46992737	     11.78004687	      3.82941173	    -17.42731820	     17.95890321	     17.95890321	     10.92271063	     -5.49737793	     -2.18393630	     33.26897931	    -12.46573450	      3.87354761	     64.89499058	     64.89499058	      4.92533022	    -18.50500853	     11.44553630	     -9.77650197	      6.04655946	      2.86081731	     20.49080837	    -17.35266479	     -8.67106854	     55.28634663	     45.23760130	      0.00000000	      0.00000000	      3.21737041	     -6.47854926	     -1.86090047	     29.54839300	     46.61441248	      0.00000000	      0.00000000
